<svg width="50" height="70" viewBox="0 0 50 70" fill="none" xmlns="http://www.w3.org/2000/svg">
<path d="M12.3509 58.2727H13.6634V64.4602C13.6634 65.0199 13.5526 65.4986 13.331 65.8963C13.1122 66.294 12.804 66.598 12.4062 66.8082C12.0085 67.0156 11.5426 67.1193 11.0085 67.1193C10.517 67.1193 10.0753 67.0298 9.68324 66.8509C9.29403 66.6719 8.9858 66.4119 8.75852 66.071C8.53409 65.7273 8.42188 65.3097 8.42188 64.8182H9.73011C9.73011 65.0597 9.78551 65.2685 9.89631 65.4446C10.0099 65.6207 10.1648 65.7585 10.3608 65.858C10.5597 65.9545 10.7869 66.0028 11.0426 66.0028C11.321 66.0028 11.5568 65.9446 11.75 65.8281C11.946 65.7088 12.0952 65.5341 12.1974 65.304C12.2997 65.0739 12.3509 64.7926 12.3509 64.4602V58.2727ZM19.3342 62.0824V63.1903H15.4648V62.0824H19.3342ZM20.6637 67V66.0455L23.6168 62.9858C23.9322 62.6534 24.1921 62.3622 24.3967 62.1122C24.604 61.8594 24.7589 61.6193 24.8612 61.392C24.9634 61.1648 25.0146 60.9233 25.0146 60.6676C25.0146 60.3778 24.9464 60.1278 24.81 59.9176C24.6737 59.7045 24.4876 59.5412 24.2518 59.4276C24.016 59.3111 23.7504 59.2528 23.4549 59.2528C23.1424 59.2528 22.8697 59.3168 22.6367 59.4446C22.4038 59.5724 22.2248 59.7528 22.0998 59.9858C21.9748 60.2187 21.9123 60.4915 21.9123 60.804H20.6552C20.6552 60.2727 20.7773 59.8082 21.0217 59.4105C21.266 59.0128 21.6012 58.7045 22.0273 58.4858C22.4535 58.2642 22.9379 58.1534 23.4805 58.1534C24.0288 58.1534 24.5117 58.2628 24.9293 58.4815C25.3498 58.6974 25.6779 58.9929 25.9137 59.3679C26.1495 59.7401 26.2674 60.1605 26.2674 60.6293C26.2674 60.9531 26.2063 61.2699 26.0842 61.5795C25.9648 61.8892 25.756 62.2344 25.4577 62.6151C25.1594 62.9929 24.7447 63.4517 24.2134 63.9915L22.479 65.8068V65.8707H26.408V67H20.6637ZM31.0614 67.1449C30.3881 67.142 29.8129 66.9645 29.3356 66.6122C28.8583 66.2599 28.4933 65.7472 28.2404 65.0739C27.9876 64.4006 27.8612 63.5895 27.8612 62.6406C27.8612 61.6946 27.9876 60.8864 28.2404 60.2159C28.4961 59.5455 28.8626 59.0341 29.3398 58.6818C29.82 58.3295 30.3938 58.1534 31.0614 58.1534C31.729 58.1534 32.3015 58.331 32.7788 58.6861C33.256 59.0384 33.6211 59.5497 33.8739 60.2202C34.1296 60.8878 34.2575 61.6946 34.2575 62.6406C34.2575 63.5923 34.131 64.4048 33.8782 65.0781C33.6254 65.7486 33.2603 66.2614 32.783 66.6165C32.3058 66.9688 31.7319 67.1449 31.0614 67.1449ZM31.0614 66.0071C31.6523 66.0071 32.114 65.7188 32.4464 65.142C32.7816 64.5653 32.9492 63.7315 32.9492 62.6406C32.9492 61.9162 32.8725 61.304 32.7191 60.804C32.5685 60.3011 32.3512 59.9205 32.0671 59.6619C31.7859 59.4006 31.4506 59.2699 31.0614 59.2699C30.4734 59.2699 30.0117 59.5597 29.6765 60.1392C29.3413 60.7187 29.1722 61.5526 29.1694 62.6406C29.1694 63.3679 29.2447 63.983 29.3952 64.4858C29.5487 64.9858 29.766 65.3651 30.0472 65.6236C30.3285 65.8793 30.6665 66.0071 31.0614 66.0071ZM35.5859 65.2955V64.2301L39.3572 58.2727H40.1967V59.8409H39.6641L36.9666 64.1108V64.179H42.1357V65.2955H35.5859ZM39.7237 67V64.9716L39.7322 64.4858V58.2727H40.9808V67H39.7237Z" fill="#F3B817"/>
<g clip-path="url(#clip0_445_379)">
<path d="M39.5833 50.0094H10.4167C4.67292 50.0094 0 45.3365 0 39.5927V20.2677C0 16.799 1.71667 13.5698 4.59167 11.6323L19.1729 1.79065C22.7125 -0.596852 27.2875 -0.596852 30.8271 1.79065L45.4104 11.6323C48.2833 13.5698 50 16.7969 50 20.2677V39.5927C50 45.3365 45.3271 50.0094 39.5833 50.0094ZM25 4.16981C23.7833 4.16981 22.5667 4.52815 21.5042 5.2469L6.92083 15.0865C5.19583 16.249 4.16667 18.1844 4.16667 20.2656V39.5907C4.16667 43.0365 6.97083 45.8407 10.4167 45.8407H39.5833C43.0292 45.8407 45.8333 43.0365 45.8333 39.5907V20.2677C45.8333 18.1865 44.8042 16.249 43.0813 15.0886L28.4958 5.2469C27.4333 4.52815 26.2167 4.16981 25 4.16981Z" fill="url(#paint0_linear_445_379)"/>
<path d="M21.76 29.19C21.1867 29.19 20.7633 29.0333 20.49 28.72C20.2167 28.4 20.0333 27.92 19.94 27.28C19.9133 26.9933 19.89 26.69 19.87 26.37C19.8567 26.05 19.8467 25.7267 19.84 25.4C19.8333 25.0667 19.83 24.7367 19.83 24.41C19.8367 24.0833 19.8467 23.7667 19.86 23.46C19.88 22.7733 19.9233 22.0867 19.99 21.4C20.0633 20.7133 20.1767 20.0467 20.33 19.4C20.4833 18.7533 20.6867 18.1533 20.94 17.6C21.1467 17.2267 21.41 16.9533 21.73 16.78C22.0567 16.6067 22.4433 16.52 22.89 16.52C23.2767 16.52 23.5767 16.6367 23.79 16.87C24.01 17.1033 24.12 17.4067 24.12 17.78C24.12 17.96 24.1067 18.1833 24.08 18.45C24.06 18.71 24.0333 18.9867 24 19.28C23.9667 19.5667 23.9333 19.8467 23.9 20.12C23.8733 20.3933 23.85 20.6333 23.83 20.84C23.8167 21.0467 23.8133 21.1967 23.82 21.29C23.8467 21.4167 23.8867 21.51 23.94 21.57C23.9933 21.63 24.09 21.66 24.23 21.66C24.33 21.66 24.4467 21.6233 24.58 21.55C24.72 21.4767 24.8667 21.3667 25.02 21.22C25.3867 20.9067 25.85 20.5167 26.41 20.05C26.97 19.5767 27.5333 19.1167 28.1 18.67C28.6133 18.2567 29.07 17.94 29.47 17.72C29.8767 17.4933 30.2533 17.38 30.6 17.38C30.88 17.38 31.1067 17.4333 31.28 17.54C31.4533 17.6467 31.58 17.79 31.66 17.97C31.74 18.1433 31.78 18.3267 31.78 18.52C31.78 18.6467 31.7467 18.7833 31.68 18.93C31.6133 19.0767 31.5167 19.23 31.39 19.39C31.2633 19.55 31.11 19.72 30.93 19.9C30.75 20.0733 30.54 20.2533 30.3 20.44C29.9867 20.68 29.6367 20.93 29.25 21.19C28.87 21.4433 28.4933 21.6867 28.12 21.92C27.7533 22.1467 27.4267 22.34 27.14 22.5C26.8867 22.6333 26.7 22.7433 26.58 22.83C26.4667 22.9167 26.41 23 26.41 23.08C26.41 23.1533 26.4367 23.23 26.49 23.31C26.5433 23.3833 26.6433 23.48 26.79 23.6C26.9033 23.7 27.0633 23.84 27.27 24.02C27.4767 24.1933 27.7067 24.39 27.96 24.61C28.2133 24.8233 28.46 25.0367 28.7 25.25C28.9467 25.4567 29.1633 25.6433 29.35 25.81C29.5433 25.97 29.68 26.09 29.76 26.17C30.2533 26.6167 30.6033 26.9867 30.81 27.28C31.0233 27.5733 31.13 27.8133 31.13 28C31.13 28.28 31.07 28.5067 30.95 28.68C30.83 28.8467 30.6633 28.9667 30.45 29.04C30.2367 29.12 29.99 29.16 29.71 29.16C29.4167 29.16 29.0733 29.0667 28.68 28.88C28.2933 28.6867 27.84 28.3633 27.32 27.91C26.8467 27.4833 26.4567 27.12 26.15 26.82C25.8433 26.5133 25.5867 26.25 25.38 26.03C25.18 25.81 25.0067 25.6133 24.86 25.44C24.7133 25.2667 24.5667 25.1 24.42 24.94C24.2733 24.7333 24.1533 24.5767 24.06 24.47C23.9667 24.3633 23.8867 24.29 23.82 24.25C23.76 24.2033 23.6967 24.18 23.63 24.18C23.5433 24.18 23.48 24.2167 23.44 24.29C23.4067 24.3633 23.39 24.4733 23.39 24.62C23.39 24.66 23.39 24.7567 23.39 24.91C23.39 25.0567 23.3867 25.2333 23.38 25.44C23.3733 25.6467 23.3667 25.8567 23.36 26.07C23.3533 26.2833 23.3467 26.48 23.34 26.66C23.34 26.8333 23.3367 26.9633 23.33 27.05C23.27 27.83 23.1167 28.3833 22.87 28.71C22.63 29.03 22.26 29.19 21.76 29.19Z" fill="url(#paint1_linear_445_379)"/>
</g>
<defs>
<linearGradient id="paint0_linear_445_379" x1="25" y1="2.28882e-05" x2="25" y2="50.0094" gradientUnits="userSpaceOnUse">
<stop stop-color="#EFEB77"/>
<stop offset="1" stop-color="#F3B817"/>
</linearGradient>
<linearGradient id="paint1_linear_445_379" x1="26" y1="16" x2="26" y2="34" gradientUnits="userSpaceOnUse">
<stop stop-color="#EFEB77"/>
<stop offset="1" stop-color="#F3B817"/>
</linearGradient>
<clipPath id="clip0_445_379">
<rect width="50" height="50" fill="white"/>
</clipPath>
</defs>
</svg>
