<svg width="141" height="67" viewBox="0 0 141 67" fill="none" xmlns="http://www.w3.org/2000/svg">
<path fill-rule="evenodd" clip-rule="evenodd" d="M98.395 49.6401V16.5131C89.1869 10.333 79.2806 5.47937 69.6975 0C66.9953 2.00143 63.9673 3.47794 61.0893 5.1277C54.3842 8.85646 47.7051 12.6861 41 16.5131V49.6401C47.7051 53.4672 54.3842 57.2942 61.0893 61.1238C63.9673 62.7736 66.9953 64.2501 69.6975 66.2515C79.3556 60.7488 89.1869 55.7944 98.395 49.6401Z" fill="#151515"/>
<path fill-rule="evenodd" clip-rule="evenodd" d="M68.371 62.4995L43.5005 48.1119V19.3394L68.371 33.9261V62.4995Z" fill="white"/>
<path fill-rule="evenodd" clip-rule="evenodd" d="M96.0187 48.4144L71.1482 62.7994L71.4481 33.6261L96.0187 19.6393V48.4144Z" fill="white"/>
<path fill-rule="evenodd" clip-rule="evenodd" d="M94.4931 17.188L69.7235 31.0998L45.0288 17.188L69.7235 3.12628L94.4931 17.188Z" fill="#F3B817"/>
<path d="M16.7579 52C24.5293 52 30.6175 47.2988 29.9499 38.9594C29.4743 32.9891 24.4309 30.5151 23.5085 30.0626C23.4238 30.021 23.3738 29.9965 23.3654 29.9879C23.3654 29.9879 29.2311 27.0079 28.7374 20.2356C27.9699 10.935 20.4467 10 12.2787 10H0V51.8981L16.7579 52ZM12.8722 34.6891C16.9549 34.6891 19.0602 35.6738 19.1574 38.9594C19.2572 41.942 17.5739 43.4595 13.2917 43.4595H10.2732V34.6891H12.8722ZM12.7724 18.0861C15.2717 18.0861 17.5739 18.5666 17.9449 21.8522C18.2416 24.9864 15.4942 26.5508 12.8952 26.5508H10.2732V18.0861H12.7724Z" fill="white"/>
<path d="M16.7579 52C24.5293 52 30.6175 47.2988 29.9499 38.9594C29.4743 32.9891 24.4309 30.5151 23.5085 30.0626C23.4238 30.021 23.3738 29.9965 23.3654 29.9879C23.3654 29.9879 29.2311 27.0079 28.7374 20.2356C27.9699 10.935 20.4467 10 12.2787 10H0V51.8981L16.7579 52ZM12.8722 34.6891C16.9549 34.6891 19.0602 35.6738 19.1574 38.9594C19.2572 41.942 17.5739 43.4595 13.2917 43.4595H10.2732V34.6891H12.8722ZM12.7724 18.0861C15.2717 18.0861 17.5739 18.5666 17.9449 21.8522C18.2416 24.9864 15.4942 26.5508 12.8952 26.5508H10.2732V18.0861H12.7724Z" stroke="black"/>
<path d="M106.103 13.3224L117.918 30.8382L105 49.4197L113.888 53L123.138 38.5665L131.772 52.6321L141 49.4197L128.525 30.6655L140.489 13.3224L131.772 10L123.307 23.4151L115.245 10.4576L106.103 13.3224Z" fill="white"/>
<path d="M106.103 13.3224L117.918 30.8382L105 49.4197L113.888 53L123.138 38.5665L131.772 52.6321L141 49.4197L128.525 30.6655L140.489 13.3224L131.772 10L123.307 23.4151L115.245 10.4576L106.103 13.3224Z" stroke="black"/>
</svg>
