<svg width="1051" height="900" viewBox="0 0 1051 900" fill="none" xmlns="http://www.w3.org/2000/svg">
<path d="M1450.03 618.884L1383.45 665.375C1335.07 699.159 1282.13 686.38 1234.42 629.384C1210.88 601.282 1183.97 566.172 1155.5 528.999C1067.98 414.788 948.164 258.44 902.29 290.473L849.569 327.288L841.03 315.061L893.752 278.246C951.303 238.058 1061.14 381.369 1167.35 519.965C1195.74 557.016 1222.56 592.004 1245.83 619.773C1275.6 655.318 1322.14 689.971 1374.9 653.127L1441.48 606.635L1450.03 618.884Z" fill="#FFC727"/>
<path opacity="0.2" d="M879.718 287.981L885.648 302.03L849.536 327.247L840.997 315.02L879.718 287.981Z" fill="black"/>
<path d="M694.795 317.342L673.479 332.228L777.491 481.18L798.808 466.295L694.795 317.342Z" fill="#FFC727"/>
<path d="M681.188 343.216L600.14 399.812L687.716 525.227L768.764 468.631L681.188 343.216Z" fill="#FFC727"/>
<path opacity="0.2" d="M681.179 343.253L768.755 468.667L748.621 482.727L652.017 363.617L681.179 343.253Z" fill="black"/>
<path d="M553.663 465.765L615.841 422.347L628.933 441.096L566.756 484.514C564.626 486.001 561.993 486.581 559.436 486.127C556.878 485.673 554.606 484.221 553.119 482.092L551.255 479.422C550.515 478.368 549.99 477.178 549.71 475.92C549.431 474.663 549.402 473.362 549.626 472.094C549.849 470.825 550.321 469.613 551.014 468.527C551.707 467.441 552.607 466.503 553.663 465.765Z" fill="#DBDBDB"/>
<path d="M615.838 422.349L594.012 437.59L607.09 456.318L628.916 441.077L615.838 422.349Z" fill="#A6A6A6"/>
<path d="M596.708 527.413L658.886 483.995L671.978 502.744L609.8 546.162C607.671 547.649 605.038 548.229 602.481 547.775C599.923 547.321 597.651 545.869 596.164 543.74L594.3 541.07C593.56 540.016 593.035 538.826 592.755 537.568C592.476 536.311 592.447 535.01 592.671 533.742C592.894 532.473 593.366 531.261 594.059 530.175C594.752 529.089 595.652 528.151 596.708 527.413Z" fill="#DBDBDB"/>
<path d="M658.886 483.997L637.06 499.238L650.138 517.966L671.964 502.725L658.886 483.997Z" fill="#A6A6A6"/>
<path d="M863.884 291.128L800.565 335.343L818.027 360.348L881.345 316.133L863.884 291.128Z" fill="#FFC727"/>
<path d="M863.895 291.148L800.576 335.363L818.037 360.369L881.356 316.154L863.895 291.148Z" fill="#FFC727"/>
<path opacity="0.2" d="M822.81 319.838L838.192 346.295L818.037 360.369L800.576 335.363L822.81 319.838Z" fill="black"/>
<path d="M705.781 333.074L755.894 298.08C759.218 295.759 763.328 294.854 767.32 295.563C771.312 296.272 774.858 298.538 777.179 301.862L840.663 392.774C842.984 396.098 843.889 400.208 843.18 404.2C842.471 408.192 840.205 411.738 836.881 414.059L786.768 449.053L705.781 333.074Z" fill="#FFC727"/>
<path opacity="0.2" d="M732.437 314.459L804.396 436.742L786.788 449.037L705.801 333.058L732.437 314.459Z" fill="black"/>
<g opacity="0.2">
<path d="M744.144 341.152L740.149 343.941L788.392 413.027L792.386 410.238L744.144 341.152Z" fill="black"/>
<path d="M755.471 333.241L751.477 336.03L799.719 405.116L803.713 402.327L755.471 333.241Z" fill="black"/>
<path d="M766.806 325.327L762.812 328.116L811.054 397.202L815.048 394.413L766.806 325.327Z" fill="black"/>
</g>
<path d="M492.424 565.582C497.521 561.81 519.397 542.472 524.291 535.719C529.186 528.966 541.745 508.616 537.032 504.297C532.319 499.979 528.071 505.704 528.071 505.704C528.071 505.704 532.038 496.234 526.832 492.381C521.625 488.529 515.347 497.642 515.347 497.642C515.347 497.642 518.716 487.619 513.228 484.145C507.74 480.671 503.043 490.833 503.043 490.833C503.043 490.833 506.558 481.8 500.841 480.82C493.919 479.59 489.373 497.044 483.429 504.075C482.071 505.69 453.719 534.553 453.719 534.553L492.424 565.582Z" fill="#AD6359"/>
<path d="M503.609 489.86C500.181 502.622 496.49 507.625 486.944 516.443C486.916 516.481 486.902 516.526 486.901 516.573C486.901 516.619 486.915 516.665 486.942 516.703C486.968 516.741 487.006 516.77 487.05 516.785C487.093 516.801 487.141 516.803 487.186 516.79C497.299 509 502.846 503.399 504.226 490.006C504.247 489.385 503.707 489.307 503.609 489.86Z" fill="#263238"/>
<path d="M515.66 496.577C511.039 509.627 507.003 514.961 497.785 524.945C497.642 525.044 497.897 525.322 497.984 525.23C507.926 516.196 513.333 510.48 516.329 496.928C516.405 496.299 515.874 495.973 515.66 496.577Z" fill="#263238"/>
<path d="M527.575 506.205C522.122 518.41 518.028 524.574 507.745 533.118C507.691 533.156 507.654 533.214 507.643 533.279C507.631 533.343 507.646 533.41 507.683 533.464C507.721 533.518 507.779 533.555 507.844 533.567C507.909 533.578 507.976 533.564 508.03 533.526C517.954 527.449 525.094 517.716 527.911 506.425C528.162 505.613 527.924 505.446 527.575 506.205Z" fill="#263238"/>
<path d="M443.197 535.537C446.209 528.157 449.758 521.007 453.816 514.146C458.14 508.095 482.392 491.16 486.328 496.233C491.42 502.743 479.312 515.23 472.594 520.588C472.594 520.588 484.385 535.607 477.634 546.475C470.884 557.343 443.197 535.537 443.197 535.537Z" fill="#AD6359"/>
<path d="M487.15 498.475C487.543 507.72 478.215 514.203 472.083 519.88C471.984 519.957 471.906 520.057 471.856 520.172C471.806 520.287 471.786 520.413 471.798 520.538C471.81 520.663 471.853 520.783 471.923 520.887C471.993 520.99 472.088 521.075 472.2 521.132C476.797 527.715 481.219 538.39 478.129 546.338C478.031 546.589 478.4 546.725 478.471 546.524C482.883 538.471 479.409 527.679 473.942 520.674C480.328 514.971 489.391 508.067 487.225 498.453C487.217 498.398 487.142 498.42 487.15 498.475Z" fill="#263238"/>
<path d="M406.892 546.729C408.299 551.598 409.988 556.38 411.952 561.052C413.8 565.825 415.606 570.627 417.617 575.286C421.384 584.547 425.673 593.587 430.461 602.363C430.495 602.412 430.547 602.445 430.606 602.456C430.664 602.466 430.724 602.453 430.773 602.419C430.822 602.385 430.855 602.333 430.865 602.274C430.875 602.216 430.862 602.156 430.828 602.107C427.451 592.582 423.375 583.271 419.382 573.993C417.371 569.334 415.365 564.854 413.411 560.276C411.457 555.698 409.553 550.843 407.24 546.577C407.22 546.53 407.182 546.494 407.135 546.476C407.088 546.457 407.036 546.458 406.99 546.479C406.944 546.499 406.907 546.536 406.889 546.583C406.871 546.63 406.872 546.683 406.892 546.729Z" fill="#263238"/>
<path d="M498.741 1283.16L432.161 1329.65L423.623 1317.43L490.202 1270.94C542.944 1234.11 526.463 1178.46 503.344 1138.28C485.247 1106.81 461.62 1069.58 436.657 1030.23C343.124 882.783 246.413 730.308 303.965 690.12L356.706 653.291L365.245 665.519L312.462 702.377C266.609 734.396 372.169 900.761 449.2 1022.23C474.284 1061.8 497.977 1099.16 516.273 1130.92C553.339 1195.29 547.121 1249.38 498.741 1283.16Z" fill="#FFC727"/>
<path opacity="0.2" d="M356.664 653.229L365.202 665.456L323.139 694.828L311.992 684.422L356.664 653.229Z" fill="black"/>
<path d="M599.053 610.575L621.511 594.893L511.962 438.012L489.504 453.694L599.053 610.575Z" fill="#FFC727"/>
<path d="M494.702 461.129L409.354 520.728L507.375 661.101L592.724 601.502L494.702 461.129Z" fill="#FFC727"/>
<path opacity="0.2" d="M494.698 461.13L592.719 601.504L571.525 616.303L463.986 482.576L494.698 461.13Z" fill="black"/>
<path d="M337.983 693.951L401.302 649.736L383.841 624.731L320.522 668.946L337.983 693.951Z" fill="#FFC727"/>
<path d="M383.856 624.753L320.537 668.968L337.998 693.973L401.317 649.758L383.856 624.753Z" fill="#FFC727"/>
<path opacity="0.2" d="M379.073 665.262L363.705 638.826L383.86 624.752L401.307 649.737L379.073 665.262Z" fill="black"/>
<path d="M501.57 652.786L448.136 690.099C444.812 692.42 440.702 693.326 436.71 692.617C432.718 691.908 429.172 689.642 426.85 686.318L359.055 589.23C356.734 585.906 355.828 581.796 356.537 577.805C357.247 573.813 359.512 570.266 362.837 567.945L416.271 530.632L501.57 652.786Z" fill="#FFC727"/>
<path opacity="0.2" d="M473.479 672.396L397.711 543.617L416.277 530.653L501.562 652.786L473.479 672.396Z" fill="black"/>
<g opacity="0.2">
<path d="M461.147 644.268L465.365 641.322L414.561 568.568L410.343 571.514L461.147 644.268Z" fill="black"/>
<path d="M449.217 652.596L453.436 649.65L402.632 576.896L398.413 579.842L449.217 652.596Z" fill="black"/>
<path d="M437.28 660.934L441.499 657.988L390.695 585.234L386.477 588.18L437.28 660.934Z" fill="black"/>
</g>
<path d="M531.252 385.489C530.982 385.678 530.647 385.751 530.323 385.694C529.998 385.636 529.71 385.452 529.521 385.182L509.499 356.508C509.31 356.237 509.236 355.903 509.294 355.579C509.352 355.254 509.536 354.966 509.806 354.777C510.076 354.589 510.41 354.515 510.735 354.573C511.06 354.63 511.348 354.814 511.537 355.085L531.559 383.758C531.748 384.029 531.822 384.363 531.764 384.687C531.706 385.012 531.522 385.3 531.252 385.489Z" fill="#263238"/>
<path d="M488.956 435.455C488.775 435.582 488.565 435.66 488.345 435.68C488.125 435.701 487.904 435.663 487.703 435.572L456.091 420.691C455.926 420.634 455.776 420.544 455.648 420.425C455.521 420.307 455.42 420.163 455.352 420.003C455.284 419.843 455.251 419.67 455.253 419.496C455.256 419.322 455.296 419.151 455.369 418.993C455.442 418.835 455.548 418.695 455.679 418.58C455.81 418.466 455.963 418.38 456.129 418.329C456.295 418.278 456.47 418.262 456.643 418.282C456.816 418.303 456.982 418.359 457.132 418.448L488.744 433.329C488.893 433.396 489.027 433.491 489.139 433.61C489.25 433.73 489.336 433.87 489.392 434.023C489.448 434.176 489.473 434.339 489.465 434.502C489.457 434.665 489.416 434.824 489.345 434.971C489.262 435.165 489.127 435.332 488.956 435.455Z" fill="#263238"/>
<path d="M616.809 650.317C616.63 650.444 616.419 650.518 616.199 650.53C616.034 650.536 615.869 650.508 615.715 650.448C615.56 650.388 615.42 650.297 615.302 650.181C615.184 650.065 615.09 649.926 615.028 649.772C614.966 649.619 614.935 649.454 614.938 649.289L611.871 614.505C611.857 614.342 611.874 614.178 611.924 614.021C611.973 613.865 612.052 613.72 612.157 613.595C612.262 613.469 612.391 613.366 612.537 613.29C612.682 613.214 612.84 613.168 613.004 613.153C613.167 613.139 613.331 613.157 613.487 613.206C613.644 613.255 613.789 613.335 613.914 613.44C614.04 613.545 614.143 613.674 614.219 613.819C614.295 613.964 614.341 614.123 614.355 614.286L617.423 649.07C617.457 649.315 617.416 649.565 617.307 649.787C617.197 650.01 617.024 650.194 616.809 650.317Z" fill="#263238"/>
<path d="M749.418 558.2C749.24 558.324 749.032 558.398 748.816 558.416C748.6 558.434 748.383 558.395 748.186 558.303L716.588 543.442C716.439 543.373 716.306 543.275 716.196 543.153C716.086 543.032 716.001 542.891 715.945 542.737C715.889 542.582 715.865 542.419 715.873 542.255C715.88 542.092 715.92 541.931 715.99 541.783C716.059 541.635 716.158 541.502 716.279 541.392C716.4 541.281 716.541 541.196 716.696 541.141C716.85 541.085 717.013 541.06 717.177 541.068C717.34 541.076 717.501 541.116 717.649 541.185L749.248 556.046C749.397 556.112 749.531 556.208 749.642 556.327C749.753 556.446 749.839 556.587 749.895 556.74C749.951 556.893 749.976 557.056 749.968 557.219C749.96 557.381 749.919 557.541 749.849 557.688C749.758 557.897 749.609 558.075 749.418 558.2Z" fill="#263238"/>
<path d="M592.876 363.379C592.697 363.505 592.486 363.579 592.267 363.592C592.105 363.608 591.941 363.591 591.785 363.542C591.63 363.494 591.485 363.415 591.361 363.309C591.237 363.204 591.135 363.075 591.061 362.929C590.987 362.784 590.944 362.625 590.933 362.462L587.851 327.658C587.857 327.35 587.977 327.056 588.187 326.832C588.398 326.607 588.684 326.469 588.991 326.443C589.297 326.418 589.602 326.507 589.847 326.694C590.092 326.88 590.259 327.151 590.315 327.453L593.397 362.257C593.411 362.473 593.37 362.688 593.279 362.884C593.189 363.08 593.05 363.25 592.876 363.379Z" fill="#263238"/>
</svg>
