<svg width="50" height="50" viewBox="0 0 50 50" fill="none" xmlns="http://www.w3.org/2000/svg">
<g clip-path="url(#clip0_196_12)">
<path d="M39.5833 50H10.4167C4.67292 50 0 45.3271 0 39.5833V20.2583C0 16.7896 1.71667 13.5604 4.59167 11.6229L19.1729 1.78125C22.7125 -0.606251 27.2875 -0.606251 30.8271 1.78125L45.4104 11.6229C48.2833 13.5604 50 16.7875 50 20.2583V39.5833C50 45.3271 45.3271 50 39.5833 50ZM25 4.16042C23.7833 4.16042 22.5667 4.51875 21.5042 5.2375L6.92083 15.0771C5.19583 16.2396 4.16667 18.175 4.16667 20.2563V39.5813C4.16667 43.0271 6.97083 45.8313 10.4167 45.8313H39.5833C43.0292 45.8313 45.8333 43.0271 45.8333 39.5813V20.2583C45.8333 18.1771 44.8042 16.2396 43.0812 15.0792L28.4958 5.2375C27.4333 4.51875 26.2167 4.16042 25 4.16042Z" fill="url(#paint0_linear_196_12)"/>
</g>
<defs>
<linearGradient id="paint0_linear_196_12" x1="25" y1="-0.00937557" x2="25" y2="50" gradientUnits="userSpaceOnUse">
<stop stop-color="#EFEB77"/>
<stop offset="1" stop-color="#F3B817"/>
</linearGradient>
<clipPath id="clip0_196_12">
<rect width="50" height="50" fill="white"/>
</clipPath>
</defs>
</svg>
