<svg width="50" height="50" viewBox="0 0 50 50" fill="none" xmlns="http://www.w3.org/2000/svg">
<g clip-path="url(#clip0_227_204)">
<path d="M39.5833 50.0094H10.4167C4.67292 50.0094 0 45.3365 0 39.5927V20.2677C0 16.799 1.71667 13.5698 4.59167 11.6323L19.1729 1.79066C22.7125 -0.596844 27.2875 -0.596844 30.8271 1.79066L45.4104 11.6323C48.2833 13.5698 50 16.7969 50 20.2677V39.5927C50 45.3365 45.3271 50.0094 39.5833 50.0094ZM25 4.16982C23.7833 4.16982 22.5667 4.52816 21.5042 5.24691L6.92083 15.0865C5.19583 16.249 4.16667 18.1844 4.16667 20.2657V39.5907C4.16667 43.0365 6.97083 45.8407 10.4167 45.8407H39.5833C43.0292 45.8407 45.8333 43.0365 45.8333 39.5907V20.2677C45.8333 18.1865 44.8042 16.249 43.0812 15.0886L28.4958 5.24691C27.4333 4.52816 26.2167 4.16982 25 4.16982Z" fill="url(#paint0_linear_227_204)"/>
<path d="M24.17 29.74C23.6433 29.74 23.1367 29.6933 22.65 29.6C22.17 29.5067 21.73 29.3633 21.33 29.17C20.9367 28.9833 20.5967 28.7467 20.31 28.46C20.05 28.18 19.8367 27.8633 19.67 27.51C19.5033 27.1567 19.38 26.7867 19.3 26.4C19.2267 26.0133 19.19 25.63 19.19 25.25C19.19 24.9633 19.23 24.71 19.31 24.49C19.3967 24.2633 19.5133 24.0733 19.66 23.92C19.8067 23.7667 19.9767 23.65 20.17 23.57C20.3633 23.49 20.57 23.45 20.79 23.45C21.01 23.45 21.1967 23.5133 21.35 23.64C21.5033 23.76 21.6167 23.97 21.69 24.27C21.75 24.5833 21.8133 24.8733 21.88 25.14C21.9533 25.4067 22.0433 25.6533 22.15 25.88C22.3167 26.2333 22.5367 26.4933 22.81 26.66C23.0833 26.8267 23.4167 26.91 23.81 26.91C24.19 26.91 24.4933 26.86 24.72 26.76C24.9533 26.66 25.16 26.5033 25.34 26.29C25.5333 26.0567 25.6867 25.7667 25.8 25.42C25.9133 25.0667 25.9933 24.6667 26.04 24.22C26.0933 23.7733 26.12 23.2867 26.12 22.76C26.12 22.36 26.11 21.9667 26.09 21.58C26.0767 21.1933 26.06 20.8267 26.04 20.48C26.02 20.1267 26 19.8 25.98 19.5C25.96 19.1933 25.94 18.9233 25.92 18.69C25.9067 18.4567 25.9 18.2633 25.9 18.11C25.9 17.8033 25.9433 17.54 26.03 17.32C26.1233 17.0933 26.29 16.92 26.53 16.8C26.7767 16.68 27.1367 16.62 27.61 16.62C27.9833 16.62 28.3033 16.6967 28.57 16.85C28.8367 16.9967 29.06 17.2067 29.24 17.48C29.3333 17.64 29.4167 17.8267 29.49 18.04C29.57 18.2467 29.64 18.4867 29.7 18.76C29.76 19.0267 29.81 19.3233 29.85 19.65C29.89 19.9767 29.92 20.3333 29.94 20.72C29.96 21.1 29.97 21.51 29.97 21.95C29.97 22.8167 29.9233 23.5767 29.83 24.23C29.7433 24.8767 29.62 25.44 29.46 25.92C29.3 26.4 29.1133 26.8167 28.9 27.17C28.6867 27.5167 28.46 27.8267 28.22 28.1C27.6867 28.6933 27.06 29.1133 26.34 29.36C25.6267 29.6133 24.9033 29.74 24.17 29.74Z" fill="url(#paint1_linear_227_204)"/>
</g>
<defs>
<linearGradient id="paint0_linear_227_204" x1="25" y1="3.05176e-05" x2="25" y2="50.0094" gradientUnits="userSpaceOnUse">
<stop stop-color="#EFEB77"/>
<stop offset="1" stop-color="#F3B817"/>
</linearGradient>
<linearGradient id="paint1_linear_227_204" x1="25" y1="16" x2="25" y2="34" gradientUnits="userSpaceOnUse">
<stop stop-color="#EFEB77"/>
<stop offset="1" stop-color="#F3B817"/>
</linearGradient>
<clipPath id="clip0_227_204">
<rect width="50" height="50" fill="white"/>
</clipPath>
</defs>
</svg>
