<svg width="50" height="50" viewBox="0 0 50 50" fill="none" xmlns="http://www.w3.org/2000/svg">
<g clip-path="url(#clip0_227_204)">
<path d="M39.5833 50.0094H10.4167C4.67292 50.0094 0 45.3365 0 39.5927V20.2677C0 16.799 1.71667 13.5698 4.59167 11.6323L19.1729 1.79066C22.7125 -0.596844 27.2875 -0.596844 30.8271 1.79066L45.4104 11.6323C48.2833 13.5698 50 16.7969 50 20.2677V39.5927C50 45.3365 45.3271 50.0094 39.5833 50.0094ZM25 4.16982C23.7833 4.16982 22.5667 4.52816 21.5042 5.24691L6.92083 15.0865C5.19583 16.249 4.16667 18.1844 4.16667 20.2657V39.5907C4.16667 43.0365 6.97083 45.8407 10.4167 45.8407H39.5833C43.0292 45.8407 45.8333 43.0365 45.8333 39.5907V20.2677C45.8333 18.1865 44.8042 16.249 43.0812 15.0886L28.4958 5.24691C27.4333 4.52816 26.2167 4.16982 25 4.16982Z" fill="url(#paint0_linear_227_204)"/>
<path d="M32.34 31.07C31.9933 31.07 31.6667 30.9567 31.36 30.73C31.1733 30.55 30.9533 30.2967 30.7 29.97C30.4533 29.6433 30.2133 29.3067 29.98 28.96C29.9 28.8333 29.8133 28.7467 29.72 28.7C29.6333 28.6533 29.5333 28.63 29.42 28.63C29.2333 28.63 28.99 28.6833 28.69 28.79C28.39 28.8967 28.01 29.0033 27.55 29.11C27.09 29.2167 26.5233 29.27 25.85 29.27C24.93 29.27 24.0867 29.1333 23.32 28.86C22.56 28.58 21.9 28.18 21.34 27.66C20.7867 27.1333 20.3567 26.5 20.05 25.76C19.75 25.0133 19.6 24.1767 19.6 23.25C19.6 22.2967 19.7833 21.4333 20.15 20.66C20.5233 19.8867 21.0333 19.22 21.68 18.66C22.3333 18.1 23.0867 17.67 23.94 17.37C24.7933 17.07 25.7 16.92 26.66 16.92C27.6067 16.92 28.4833 17.0567 29.29 17.33C30.0967 17.5967 30.8033 17.9867 31.41 18.5C32.0167 19.0067 32.49 19.62 32.83 20.34C33.17 21.06 33.34 21.87 33.34 22.77C33.34 23.2833 33.2933 23.76 33.2 24.2C33.1067 24.64 32.97 25.0367 32.79 25.39C32.61 25.7433 32.3867 26.05 32.12 26.31C31.94 26.4833 31.85 26.64 31.85 26.78C31.85 26.8667 31.92 26.9633 32.06 27.07C32.2 27.1767 32.4 27.3067 32.66 27.46C32.8267 27.62 32.9933 27.7867 33.16 27.96C33.3267 28.1333 33.4733 28.3133 33.6 28.5C33.7333 28.68 33.84 28.8667 33.92 29.06C34 29.2533 34.04 29.4533 34.04 29.66C34.04 29.94 33.9567 30.1867 33.79 30.4C33.63 30.6133 33.42 30.7767 33.16 30.89C32.9 31.01 32.6267 31.07 32.34 31.07ZM26.35 26.18C27.0967 26.18 27.7533 26.0533 28.32 25.8C28.8933 25.54 29.34 25.1667 29.66 24.68C29.9867 24.1867 30.15 23.59 30.15 22.89C30.15 22.1633 30.0233 21.55 29.77 21.05C29.5167 20.5433 29.13 20.16 28.61 19.9C28.09 19.64 27.43 19.51 26.63 19.51C26.11 19.51 25.6233 19.5967 25.17 19.77C24.7167 19.9367 24.3133 20.1767 23.96 20.49C23.6133 20.7967 23.3433 21.16 23.15 21.58C22.9567 21.9933 22.86 22.4467 22.86 22.94C22.86 23.4467 22.9433 23.9 23.11 24.3C23.2767 24.7 23.5167 25.04 23.83 25.32C24.1433 25.6 24.5133 25.8133 24.94 25.96C25.3667 26.1067 25.8367 26.18 26.35 26.18Z" fill="url(#paint1_linear_227_204)"/>
</g>
<defs>
<linearGradient id="paint0_linear_227_204" x1="25" y1="3.05176e-05" x2="25" y2="50.0094" gradientUnits="userSpaceOnUse">
<stop stop-color="#EFEB77"/>
<stop offset="1" stop-color="#F3B817"/>
</linearGradient>
<linearGradient id="paint1_linear_227_204" x1="27" y1="16" x2="27" y2="34" gradientUnits="userSpaceOnUse">
<stop stop-color="#EFEB77"/>
<stop offset="1" stop-color="#F3B817"/>
</linearGradient>
<clipPath id="clip0_227_204">
<rect width="50" height="50" fill="white"/>
</clipPath>
</defs>
</svg>
