<svg width="50" height="50" viewBox="0 0 50 50" fill="none" xmlns="http://www.w3.org/2000/svg">
<g clip-path="url(#clip0_227_204)">
<path d="M39.5833 50.0094H10.4167C4.67292 50.0094 0 45.3365 0 39.5927V20.2677C0 16.799 1.71667 13.5698 4.59167 11.6323L19.1729 1.79066C22.7125 -0.596844 27.2875 -0.596844 30.8271 1.79066L45.4104 11.6323C48.2833 13.5698 50 16.7969 50 20.2677V39.5927C50 45.3365 45.3271 50.0094 39.5833 50.0094ZM25 4.16982C23.7833 4.16982 22.5667 4.52816 21.5042 5.24691L6.92083 15.0865C5.19583 16.249 4.16667 18.1844 4.16667 20.2657V39.5907C4.16667 43.0365 6.97083 45.8407 10.4167 45.8407H39.5833C43.0292 45.8407 45.8333 43.0365 45.8333 39.5907V20.2677C45.8333 18.1865 44.8042 16.249 43.0812 15.0886L28.4958 5.24691C27.4333 4.52816 26.2167 4.16982 25 4.16982Z" fill="url(#paint0_linear_227_204)"/>
<path d="M21.76 29.19C21.1867 29.19 20.7633 29.0333 20.49 28.72C20.2167 28.4 20.0333 27.92 19.94 27.28C19.9133 26.9933 19.89 26.69 19.87 26.37C19.8567 26.05 19.8467 25.7267 19.84 25.4C19.8333 25.0667 19.83 24.7367 19.83 24.41C19.8367 24.0833 19.8467 23.7667 19.86 23.46C19.88 22.7733 19.9233 22.0867 19.99 21.4C20.0633 20.7133 20.1767 20.0467 20.33 19.4C20.4833 18.7533 20.6867 18.1533 20.94 17.6C21.1467 17.2267 21.41 16.9533 21.73 16.78C22.0567 16.6067 22.4433 16.52 22.89 16.52C23.2767 16.52 23.5767 16.6367 23.79 16.87C24.01 17.1033 24.12 17.4067 24.12 17.78C24.12 17.96 24.1067 18.1833 24.08 18.45C24.06 18.71 24.0333 18.9867 24 19.28C23.9667 19.5667 23.9333 19.8467 23.9 20.12C23.8733 20.3933 23.85 20.6333 23.83 20.84C23.8167 21.0467 23.8133 21.1967 23.82 21.29C23.8467 21.4167 23.8867 21.51 23.94 21.57C23.9933 21.63 24.09 21.66 24.23 21.66C24.33 21.66 24.4467 21.6233 24.58 21.55C24.72 21.4767 24.8667 21.3667 25.02 21.22C25.3867 20.9067 25.85 20.5167 26.41 20.05C26.97 19.5767 27.5333 19.1167 28.1 18.67C28.6133 18.2567 29.07 17.94 29.47 17.72C29.8767 17.4933 30.2533 17.38 30.6 17.38C30.88 17.38 31.1067 17.4333 31.28 17.54C31.4533 17.6467 31.58 17.79 31.66 17.97C31.74 18.1433 31.78 18.3267 31.78 18.52C31.78 18.6467 31.7467 18.7833 31.68 18.93C31.6133 19.0767 31.5167 19.23 31.39 19.39C31.2633 19.55 31.11 19.72 30.93 19.9C30.75 20.0733 30.54 20.2533 30.3 20.44C29.9867 20.68 29.6367 20.93 29.25 21.19C28.87 21.4433 28.4933 21.6867 28.12 21.92C27.7533 22.1467 27.4267 22.34 27.14 22.5C26.8867 22.6333 26.7 22.7433 26.58 22.83C26.4667 22.9167 26.41 23 26.41 23.08C26.41 23.1533 26.4367 23.23 26.49 23.31C26.5433 23.3833 26.6433 23.48 26.79 23.6C26.9033 23.7 27.0633 23.84 27.27 24.02C27.4767 24.1933 27.7067 24.39 27.96 24.61C28.2133 24.8233 28.46 25.0367 28.7 25.25C28.9467 25.4567 29.1633 25.6433 29.35 25.81C29.5433 25.97 29.68 26.09 29.76 26.17C30.2533 26.6167 30.6033 26.9867 30.81 27.28C31.0233 27.5733 31.13 27.8133 31.13 28C31.13 28.28 31.07 28.5067 30.95 28.68C30.83 28.8467 30.6633 28.9667 30.45 29.04C30.2367 29.12 29.99 29.16 29.71 29.16C29.4167 29.16 29.0733 29.0667 28.68 28.88C28.2933 28.6867 27.84 28.3633 27.32 27.91C26.8467 27.4833 26.4567 27.12 26.15 26.82C25.8433 26.5133 25.5867 26.25 25.38 26.03C25.18 25.81 25.0067 25.6133 24.86 25.44C24.7133 25.2667 24.5667 25.1 24.42 24.94C24.2733 24.7333 24.1533 24.5767 24.06 24.47C23.9667 24.3633 23.8867 24.29 23.82 24.25C23.76 24.2033 23.6967 24.18 23.63 24.18C23.5433 24.18 23.48 24.2167 23.44 24.29C23.4067 24.3633 23.39 24.4733 23.39 24.62C23.39 24.66 23.39 24.7567 23.39 24.91C23.39 25.0567 23.3867 25.2333 23.38 25.44C23.3733 25.6467 23.3667 25.8567 23.36 26.07C23.3533 26.2833 23.3467 26.48 23.34 26.66C23.34 26.8333 23.3367 26.9633 23.33 27.05C23.27 27.83 23.1167 28.3833 22.87 28.71C22.63 29.03 22.26 29.19 21.76 29.19Z" fill="url(#paint1_linear_227_204)"/>
</g>
<defs>
<linearGradient id="paint0_linear_227_204" x1="25" y1="3.05176e-05" x2="25" y2="50.0094" gradientUnits="userSpaceOnUse">
<stop stop-color="#EFEB77"/>
<stop offset="1" stop-color="#F3B817"/>
</linearGradient>
<linearGradient id="paint1_linear_227_204" x1="26" y1="16" x2="26" y2="34" gradientUnits="userSpaceOnUse">
<stop stop-color="#EFEB77"/>
<stop offset="1" stop-color="#F3B817"/>
</linearGradient>
<clipPath id="clip0_227_204">
<rect width="50" height="50" fill="white"/>
</clipPath>
</defs>
</svg>
